# Rhino

mtllib 3101Real.mtl
o object_1
usemtl 18StoryGlass
v 0.1512935012578964 0.1512935012578964 17.22293472290039
v 0.1512935012578964 0.1512935012578964 17.34210014343262
v 3.043106555938721 0.1512935012578964 17.22293472290039
v 3.043106555938721 0.1512935012578964 17.34210014343262
v 3.043106555938721 0.1512935012578964 17.22293472290039
v 3.043106555938721 0.1512935012578964 17.34210014343262
v 3.043106555938721 3.043106555938721 17.22293472290039
v 3.043106555938721 3.043106555938721 17.34210014343262
v 3.043106555938721 3.043106555938721 17.22293472290039
v 3.043106555938721 3.043106555938721 17.34210014343262
v 0.1512935012578964 3.043106555938721 17.22293472290039
v 0.1512935012578964 3.043106555938721 17.34210014343262
v 0.1512935012578964 3.043106555938721 17.22293472290039
v 0.1512935012578964 3.043106555938721 17.34210014343262
v 0.1512935012578964 0.1512935012578964 17.22293472290039
v 0.1512935012578964 0.1512935012578964 17.34210014343262
vt 0.9526379108428955 0.9929988980293274
vt 0.9526379108428955 1
vt 0.04736208543181419 0.9929988980293274
vt 0.04736208543181419 1
vt 0.9526379108428955 0.9929988980293274
vt 0.9526379108428955 1
vt 0.04736208543181419 0.9929988980293274
vt 0.04736208543181419 1
vt 0.9526379108428955 0.9929988980293274
vt 0.9526379108428955 1
vt 0.04736210405826569 0.9929988980293274
vt 0.04736210405826569 1
vt 0.9526379108428955 0.9929988980293274
vt 0.9526379108428955 1
vt 0.04736210405826569 0.9929988980293274
vt 0.04736210405826569 1
vn 0 1 0
vn 0 1 0
vn 0 1 0
vn 0 1 0
vn -1 0 0
vn -1 0 0
vn -1 0 0
vn -1 0 0
vn 0 -1 0
vn 0 -1 0
vn 0 -1 0
vn 0 -1 0
vn 1 0 0
vn 1 0 0
vn 1 0 0
vn 1 0 0
f 2/2/2 4/4/4 3/3/3 1/1/1
f 6/6/6 8/8/8 7/7/7 5/5/5
f 10/10/10 12/12/12 11/11/11 9/9/9
f 14/14/14 16/16/16 15/15/15 13/13/13
o object_2
usemtl 18StoryGlass
v 0 0 0.321150004863739
v 0 0 17.34210014343262
v 3.194400072097778 0 0.321150004863739
v 3.194400072097778 0 17.34210014343262
v 1.597200036048889 0 0.321150004863739
v 0 0 8.831624984741211
v 3.194400072097778 0 8.831624984741211
v 3.194400072097778 0 0.321150004863739
v 3.194400072097778 0 17.34210014343262
v 3.194400072097778 3.194400072097778 0.321150004863739
v 3.194400072097778 3.194400072097778 17.34210014343262
v 3.194400072097778 0 8.831624984741211
v 3.194400072097778 1.597200036048889 0.321150004863739
v 3.194400072097778 3.194400072097778 8.831624984741211
v 3.194400072097778 3.194400072097778 0.321150004863739
v 3.194400072097778 3.194400072097778 17.34210014343262
v 0 3.194400072097778 0.321150004863739
v 0 3.194400072097778 17.34210014343262
v 3.194400072097778 3.194400072097778 8.831624984741211
v 1.597200036048889 3.194400072097778 0.321150004863739
v 0 3.194400072097778 8.831624984741211
v 0 3.194400072097778 0.321150004863739
v 0 3.194400072097778 17.34210014343262
v 0 0 0.321150004863739
v 0 0 17.34210014343262
v 0 0 8.831624984741211
v 0 3.194400072097778 8.831624984741211
v 0 1.597200036048889 0.321150004863739
v 0 0 0.321150004863739
v 0 3.194400072097778 0.321150004863739
v 3.194400072097778 0 0.321150004863739
v 3.194400072097778 3.194400072097778 0.321150004863739
v 1.597200036048889 0 0.321150004863739
v 3.194400072097778 1.597200036048889 0.321150004863739
v 1.597200036048889 3.194400072097778 0.321150004863739
v 0 1.597200036048889 0.321150004863739
vt 0 2.857508119014085e-10
vt 0 1
vt 1 2.857508119014085e-10
vt 1 1
vt 0.5 2.857508119014085e-10
vt 0 0.5
vt 1 0.5
vt 0 2.857508119014085e-10
vt 0 1
vt 1 2.857508119014085e-10
vt 1 1
vt 0 0.5
vt 0.5 2.857508119014085e-10
vt 1 0.5
vt -2.25700524936201e-08 2.857508119014085e-10
vt -2.25700524936201e-08 1
vt 1 2.857508119014085e-10
vt 1 1
vt -2.25700524936201e-08 0.5
vt 0.5 2.857508119014085e-10
vt 1 0.5
vt -2.257005426997694e-08 2.857508119014085e-10
vt -2.257005426997694e-08 1
vt 1 2.857508119014085e-10
vt 1 1
vt 1 0.5
vt -2.257005426997694e-08 0.5
vt 0.5 2.857508119014085e-10
vt 1 0
vt 1 1
vt -2.25700524936201e-08 0
vt -2.25700524936201e-08 1
vt 0.5 0
vt -2.25700524936201e-08 0.5
vt 0.5 1
vt 1 0.5
vn 0 -1 0
vn 0 -1 0
vn 0 -1 0
vn 0 -1 0
vn 0 -1 0
vn 0 -1 0
vn 0 -1 0
vn 1 0 0
vn 1 0 0
vn 1 0 0
vn 1 0 0
vn 1 0 0
vn 1 0 0
vn 1 0 0
vn 0 1 0
vn 0 1 0
vn 0 1 0
vn 0 1 0
vn 0 1 0
vn 0 1 0
vn 0 1 0
vn -1 0 0
vn -1 0 0
vn -1 0 0
vn -1 0 0
vn -1 0 0
vn -1 0 0
vn -1 0 0
vn 0 0 -1
vn 0 0 -1
vn 0 0 -1
vn 0 0 -1
vn 0 0 -1
vn 0 0 -1
vn 0 0 -1
vn 0 0 -1
f 21/21/21 22/22/22 17/17/17
f 18/18/18 22/22/22 23/23/23 20/20/20
f 23/23/23 21/21/21 19/19/19
f 21/21/21 23/23/23 22/22/22
f 29/29/29 28/28/28 24/24/24
f 25/25/25 28/28/28 30/30/30 27/27/27
f 30/30/30 29/29/29 26/26/26
f 29/29/29 30/30/30 28/28/28
f 36/36/36 35/35/35 31/31/31
f 32/32/32 35/35/35 37/37/37 34/34/34
f 37/37/37 36/36/36 33/33/33
f 36/36/36 37/37/37 35/35/35
f 44/44/44 43/43/43 38/38/38
f 39/39/39 43/43/43 42/42/42 41/41/41
f 42/42/42 44/44/44 40/40/40
f 44/44/44 42/42/42 43/43/43
f 52/52/52 49/49/49 45/45/45
f 52/52/52 46/46/46 51/51/51
f 51/51/51 49/49/49 52/52/52
f 49/49/49 51/51/51 50/50/50
f 50/50/50 51/51/51 48/48/48
f 47/47/47 49/49/49 50/50/50
o object_3
usemtl Black
v 0 0 17.34210014343262
v 0 0.4563428461551666 17.34210014343262
v 0 0.9126856923103333 17.34210014343262
v 0 1.369028568267822 17.34210014343262
v 0 1.825371384620667 17.34210014343262
v 0 2.281714200973511 17.34210014343262
v 0 2.738057136535645 17.34210014343262
v 0 3.194400072097778 17.34210014343262
v 0.4563428461551666 0 17.34210014343262
v 0.4563428461551666 3.194400072097778 17.34210014343262
v 0.9126856923103333 0 17.34210014343262
v 0.9126856923103333 3.194400072097778 17.34210014343262
v 1.369028568267822 0 17.34210014343262
v 1.369028568267822 3.194400072097778 17.34210014343262
v 1.825371384620667 0 17.34210014343262
v 1.825371384620667 3.194400072097778 17.34210014343262
v 2.281714200973511 0 17.34210014343262
v 2.281714200973511 3.194400072097778 17.34210014343262
v 2.738057136535645 0 17.34210014343262
v 2.738057136535645 3.194400072097778 17.34210014343262
v 3.194400072097778 0 17.34210014343262
v 3.194400072097778 0.4563428461551666 17.34210014343262
v 3.194400072097778 0.9126856923103333 17.34210014343262
v 3.194400072097778 1.369028568267822 17.34210014343262
v 3.194400072097778 1.825371384620667 17.34210014343262
v 3.194400072097778 2.281714200973511 17.34210014343262
v 3.194400072097778 2.738057136535645 17.34210014343262
v 3.194400072097778 3.194400072097778 17.34210014343262
v 3.043106555938721 0.1512935012578964 17.34210014343262
v 2.72179388999939 0.1512935012578964 17.34210014343262
v 2.400481462478638 0.1512935012578964 17.34210014343262
v 2.079168796539307 0.1512935012578964 17.34210014343262
v 1.757856249809265 0.1512935012578964 17.34210014343262
v 1.436543703079224 0.1512935012578964 17.34210014343262
v 1.115231156349182 0.1512935012578964 17.34210014343262
v 0.7939186096191406 0.1512935012578964 17.34210014343262
v 0.4726060628890991 0.1512935012578964 17.34210014343262
v 0.1512935012578964 0.1512935012578964 17.34210014343262
v 0.1512935012578964 0.4726060628890991 17.34210014343262
v 0.1512935012578964 0.7939186096191406 17.34210014343262
v 0.1512935012578964 1.115231156349182 17.34210014343262
v 0.1512935012578964 1.436543703079224 17.34210014343262
v 0.1512935012578964 1.757856249809265 17.34210014343262
v 0.1512935012578964 2.079168796539307 17.34210014343262
v 0.1512935012578964 2.400481462478638 17.34210014343262
v 0.1512935012578964 2.72179388999939 17.34210014343262
v 0.1512935012578964 3.043106555938721 17.34210014343262
v 0.4726060628890991 3.043106555938721 17.34210014343262
v 0.7939186096191406 3.043106555938721 17.34210014343262
v 1.115231156349182 3.043106555938721 17.34210014343262
v 1.436543703079224 3.043106555938721 17.34210014343262
v 1.757856249809265 3.043106555938721 17.34210014343262
v 2.079168796539307 3.043106555938721 17.34210014343262
v 2.400481462478638 3.043106555938721 17.34210014343262
v 2.72179388999939 3.043106555938721 17.34210014343262
v 3.043106555938721 3.043106555938721 17.34210014343262
v 3.043106555938721 2.72179388999939 17.34210014343262
v 3.043106555938721 2.400481462478638 17.34210014343262
v 3.043106555938721 2.079168796539307 17.34210014343262
v 3.043106555938721 1.757856249809265 17.34210014343262
v 3.043106555938721 1.436543703079224 17.34210014343262
v 3.043106555938721 1.115231156349182 17.34210014343262
v 3.043106555938721 0.7939186096191406 17.34210014343262
v 3.043106555938721 0.4726060628890991 17.34210014343262
vt 0 0
vt 0 0.1428571343421936
vt 0 0.2857142686843872
vt 0 0.4285714328289032
vt 0 0.5714285373687744
vt 0 0.714285671710968
vt 0 0.8571428656578064
vt 0 1
vt 0.1428571343421936 0
vt 0.1428571343421936 1
vt 0.2857142686843872 0
vt 0.2857142686843872 1
vt 0.4285714328289032 0
vt 0.4285714328289032 1
vt 0.5714285373687744 0
vt 0.5714285373687744 1
vt 0.714285671710968 0
vt 0.714285671710968 1
vt 0.8571428656578064 0
vt 0.8571428656578064 1
vt 1 0
vt 1 0.1428571343421936
vt 1 0.2857142686843872
vt 1 0.4285714328289032
vt 1 0.5714285373687744
vt 1 0.714285671710968
vt 1 0.8571428656578064
vt 1 1
vt 0.9526379108428955 0.04736210405826569
vt 0.8520516753196716 0.04736210405826569
vt 0.7514654994010925 0.04736210405826569
vt 0.6508792638778687 0.04736210405826569
vt 0.5502930879592896 0.04736210405826569
vt 0.4497068822383881 0.04736210405826569
vt 0.349120706319809 0.04736210405826569
vt 0.2485345005989075 0.04736210405826569
vt 0.1479483097791672 0.04736210405826569
vt 0.04736210405826569 0.04736210405826569
vt 0.04736210405826569 0.1479483097791672
vt 0.04736210405826569 0.2485345005989075
vt 0.04736210405826569 0.349120706319809
vt 0.04736210405826569 0.4497068822383881
vt 0.04736210405826569 0.5502930879592896
vt 0.04736210405826569 0.6508792638778687
vt 0.04736210405826569 0.7514654994010925
vt 0.04736210405826569 0.8520516753196716
vt 0.04736210405826569 0.9526379108428955
vt 0.1479483097791672 0.9526379108428955
vt 0.2485345005989075 0.9526379108428955
vt 0.349120706319809 0.9526379108428955
vt 0.4497068822383881 0.9526379108428955
vt 0.5502930879592896 0.9526379108428955
vt 0.6508792638778687 0.9526379108428955
vt 0.7514654994010925 0.9526379108428955
vt 0.8520516753196716 0.9526379108428955
vt 0.9526379108428955 0.9526379108428955
vt 0.9526379108428955 0.8520516753196716
vt 0.9526379108428955 0.7514654994010925
vt 0.9526379108428955 0.6508792638778687
vt 0.9526379108428955 0.5502930879592896
vt 0.9526379108428955 0.4497068822383881
vt 0.9526379108428955 0.349120706319809
vt 0.9526379108428955 0.2485345005989075
vt 0.9526379108428955 0.1479483097791672
vn 0 0 1
vn -1.110223024625157e-16 0 1
vn 2.220446049250313e-16 0 1
vn -4.440892098500626e-16 0 1
vn 0 0 1
vn 4.440892098500626e-16 0 1
vn 0 0 1
vn 0 0 1
vn 0 0 1
vn 0 0 1
vn 0 0 1
vn 0 0 1
vn 0 0 1
vn 0 0 1
vn 0 0 1
vn 0 0 1
vn 0 0 1
vn 0 0 1
vn 0 0 1
vn 0 0 1
vn 0 0 1
vn -1.110223024625157e-16 0 1
vn 2.220446049250313e-16 0 1
vn -4.440892098500626e-16 0 1
vn 0 0 1
vn 4.440892098500626e-16 0 1
vn 0 0 1
vn 0 0 1
vn 0 0 1
vn 0 0 1
vn 0 0 1
vn 0 0 1
vn 0 0 1
vn 0 0 1
vn 0 0 1
vn 0 0 1
vn 0 0 1
vn 0 0 1
vn 0 0 1
vn 0 0 1
vn 0 0 1
vn 0 0 1
vn 0 0 1
vn 0 0 1
vn 0 0 1
vn 0 0 1
vn 0 0 1
vn 0 0 1
vn 0 0 1
vn 0 0 1
vn 0 0 1
vn 0 0 1
vn 0 0 1
vn 0 0 1
vn 0 0 1
vn 0 0 1
vn 0 0 1
vn 0 0 1
vn 0 0 1
vn 0 0 1
vn 0 0 1
vn 0 0 1
vn 0 0 1
vn 0 0 1
f 54/54/54 53/53/53 90/90/90 91/91/91
f 53/53/53 61/61/61 89/89/89 90/90/90
f 91/91/91 92/92/92 55/55/55 54/54/54
f 56/56/56 55/55/55 93/93/93 94/94/94
f 55/55/55 92/92/92 93/93/93
f 88/88/88 89/89/89 61/61/61 63/63/63
f 63/63/63 65/65/65 86/86/86 87/87/87
f 87/87/87 88/88/88 63/63/63
f 65/65/65 67/67/67 85/85/85 86/86/86
f 57/57/57 56/56/56 94/94/94 95/95/95
f 58/58/58 57/57/57 95/95/95 96/96/96
f 97/97/97 58/58/58 96/96/96
f 60/60/60 59/59/59 98/98/98 99/99/99
f 97/97/97 98/98/98 59/59/59 58/58/58
f 99/99/99 100/100/100 62/62/62 60/60/60
f 64/64/64 101/101/101 102/102/102
f 100/100/100 101/101/101 64/64/64 62/62/62
f 68/68/68 66/66/66 103/103/103 104/104/104
f 66/66/66 64/64/64 102/102/102 103/103/103
f 67/67/67 84/84/84 85/85/85
f 69/69/69 84/84/84 67/67/67
f 69/69/69 71/71/71 82/82/82 83/83/83
f 69/69/69 83/83/83 84/84/84
f 81/81/81 82/82/82 71/71/71 73/73/73
f 115/115/115 116/116/116 74/74/74 75/75/75
f 116/116/116 81/81/81 73/73/73 74/74/74
f 76/76/76 113/113/113 114/114/114
f 114/114/114 75/75/75 76/76/76
f 75/75/75 114/114/114 115/115/115
f 76/76/76 77/77/77 112/112/112 113/113/113
f 68/68/68 104/104/104 105/105/105
f 70/70/70 105/105/105 106/106/106
f 70/70/70 68/68/68 105/105/105
f 72/72/72 70/70/70 106/106/106 107/107/107
f 107/107/107 108/108/108 80/80/80 72/72/72
f 78/78/78 110/110/110 111/111/111
f 77/77/77 78/78/78 111/111/111 112/112/112
f 78/78/78 79/79/79 109/109/109 110/110/110
f 108/108/108 109/109/109 79/79/79 80/80/80
o object_4
usemtl Black
v 0.1512935012578964 0.1512935012578964 17.22293472290039
v 0.1512935012578964 3.043106555938721 17.22293472290039
v 3.043106555938721 0.1512935012578964 17.22293472290039
v 3.043106555938721 3.043106555938721 17.22293472290039
vt 0.04736210405826569 0.04736210405826569
vt 0.04736210405826569 0.9526379108428955
vt 0.9526379108428955 0.04736210405826569
vt 0.9526379108428955 0.9526379108428955
vn 0 0 1
vn 0 0 1
vn 0 0 1
vn 0 0 1
f 120/120/120 118/118/118 117/117/117 119/119/119
o object_5
usemtl Dark Grey
v 0 0 0
v 0 0 0.321150004863739
v 3.194400072097778 0 0
v 3.194400072097778 0 0.321150004863739
v 3.194400072097778 0 0
v 3.194400072097778 0 0.321150004863739
v 3.194400072097778 3.194400072097778 0
v 3.194400072097778 3.194400072097778 0.321150004863739
v 3.194400072097778 3.194400072097778 0
v 3.194400072097778 3.194400072097778 0.321150004863739
v 0 3.194400072097778 0
v 0 3.194400072097778 0.321150004863739
v 0 3.194400072097778 0
v 0 3.194400072097778 0.321150004863739
v 0 0 0
v 0 0 0.321150004863739
v 0 0 0
v 3.194400072097778 0 0
v 3.194400072097778 3.194400072097778 0
v 0 3.194400072097778 0
v 0 0 0.321150004863739
v 3.194400072097778 0 0.321150004863739
v 3.194400072097778 3.194400072097778 0.321150004863739
v 0 3.194400072097778 0.321150004863739
vt 0 0
vt 0 0.5239306092262268
vt 0.25 0
vt 0.25 0.5239306092262268
vt 0.25 0
vt 0.25 0.5239306092262268
vt 0.5 0
vt 0.5 0.5239306092262268
vt 0.5 0
vt 0.5 0.5239306092262268
vt 0.75 0
vt 0.75 0.5239306092262268
vt 0.75 0
vt 0.75 0.5239306092262268
vt 1 0
vt 1 0.5239306092262268
vt 0 1
vt 0.25 1
vt 0.25 0.5239311456680298
vt 0 0.5239311456680298
vt 0.75 0.5239311456680298
vt 1 0.5239311456680298
vt 1 1
vt 0.75 1
vn 0 -1 0
vn 0 -1 0
vn 0 -1 0
vn 0 -1 0
vn 1 0 0
vn 1 0 0
vn 1 0 0
vn 1 0 0
vn 0 1 0
vn 0 1 0
vn 0 1 0
vn 0 1 0
vn -1 0 0
vn -1 0 0
vn -1 0 0
vn -1 0 0
vn 0 0 -1
vn 0 0 -1
vn 0 0 -1
vn 0 0 -1
vn 0 0 1
vn 0 0 1
vn 0 0 1
vn 0 0 1
f 121/121/121 123/123/123 124/124/124 122/122/122
f 125/125/125 127/127/127 128/128/128 126/126/126
f 129/129/129 131/131/131 132/132/132 130/130/130
f 133/133/133 135/135/135 136/136/136 134/134/134
f 138/138/138 137/137/137 140/140/140
f 140/140/140 139/139/139 138/138/138
f 142/142/142 144/144/144 141/141/141
f 144/144/144 142/142/142 143/143/143
